Patient4_TMGait_0pt3_01_right_19_GRF.mot
version=1
nRows=52
nColumns=19
inDegrees=no
endheader
time	F1x	F1y	F1z	M1x	M1y	M1z	F2x	F2y	F2z	M2x	M2y	M2z	EC1x	EC1y	EC1z	EC2x	EC2y	EC2z
34.53	-0.79111	785.5708	58.0641	-306.3098	-58.9346	776.6448	-3.6025	13.9852	-4.1043	4.635	4.5796	14.771	-0.0592	0.0182	-0.0073	-0.0462	0.0165	0.9585
34.5493	-2.1659	812.2487	60.5632	-316.2526	-60.9883	801.7094	-2.8335	10.5778	-2.8109	3.5054	3.2485	11.0812	-0.0592	0.0182	-0.0073	-0.0462	0.0165	0.9585
34.5686	-3.1406	840.4942	63.2296	-326.786	-63.0383	827.5679	-2.0292	7.5499	-1.6596	2.5009	2.0291	7.8468	-0.0592	0.0182	-0.0073	-0.0462	0.0165	0.9585
34.5879	-3.4871	867.0856	65.7538	-336.7003	-64.7317	851.0155	-1.3209	5.1645	-0.75036	1.7093	1.0463	5.3335	-0.0592	0.0182	-0.0073	-0.0462	0.0165	0.9585
34.6071	-3.0402	888.7816	67.8161	-344.7752	-65.7108	868.9171	-0.76513	3.4656	-0.10072	1.1452	0.33344	3.5666	-0.0592	0.0182	-0.0073	-0.0462	0.0165	0.9585
34.6264	-1.7294	902.7639	69.1541	-349.9446	-65.7006	878.6241	-0.37049	2.3631	0.31609	0.77905	-0.13083	2.4383	-0.0592	0.0182	-0.0073	-0.0462	0.0165	0.9585
34.6457	0.39808	907.0142	69.5993	-351.4418	-64.5581	878.3186	-0.11816	1.6935	0.54565	0.5574	-0.39477	1.7692	-0.0592	0.0182	-0.0073	-0.0462	0.0165	0.9585
34.665	3.2312	900.6662	69.0782	-348.94	-62.2572	867.3204	0.019386	1.2618	0.64124	0.41638	-0.51365	1.3438	-0.0592	0.0182	-0.0073	-0.0462	0.0165	0.9585
34.6843	6.6518	884.1779	67.6139	-342.6219	-58.8665	846.2209	0.074306	0.87071	0.6535	0.28966	-0.5406	0.95032	-0.0592	0.0182	-0.0073	-0.0462	0.0165	0.9585
34.7036	10.5545	859.2799	65.3317	-333.1574	-54.5454	816.809	0.082612	0.33817	0.62179	0.11469	-0.52182	0.3986	-0.0592	0.0182	-0.0073	-0.0462	0.0165	0.9585
34.7229	14.8744	828.7619	62.4455	-321.6186	-49.5178	781.8306	0.077849	-0.48757	0.57639	-0.16232	-0.49594	-0.47155	-0.0592	0.0182	-0.0073	-0.0462	0.0165	0.9585
34.7421	19.5808	796.0838	59.2293	-309.3326	-44.0453	744.614	0.087063	-1.7136	0.54021	-0.58029	-0.49243	-1.7747	-0.0592	0.0182	-0.0073	-0.0462	0.0165	0.9585
34.7614	24.6525	764.8526	55.9856	-297.679	-38.4049	708.5784	0.1359	-3.373	0.52579	-1.1505	-0.5292	-3.5514	-0.0592	0.0182	-0.0073	-0.0462	0.0165	0.9585
34.7807	30.0605	738.2979	52.9917	-287.8877	-32.8517	676.7595	0.25154	-5.3816	0.53817	-1.843	-0.61677	-5.7157	-0.0592	0.0182	-0.0073	-0.0462	0.0165	0.9585
34.8	35.7402	718.7749	50.4614	-280.8429	-27.5984	651.3812	0.46017	-7.4722	0.56961	-2.5639	-0.74926	-7.9813	-0.0592	0.0182	-0.0073	-0.0462	0.0165	0.9585
34.8193	41.5674	707.3413	48.5527	-276.9147	-22.8338	633.496	0.78318	-9.1214	0.59931	-3.129	-0.90678	-9.7877	-0.0592	0.0182	-0.0073	-0.0462	0.0165	0.9585
34.8386	47.3626	703.561	47.3797	-275.8821	-18.7334	622.8254	1.2266	-9.4788	0.59406	-3.2402	-1.0535	-10.2263	-0.0592	0.0182	-0.0073	-0.0462	0.0165	0.9585
34.8579	52.8862	705.5931	46.9933	-276.971	-15.4496	617.8643	1.767	-7.3106	0.50679	-2.4657	-1.1277	-7.9773	-0.0592	0.0182	-0.0073	-0.0462	0.0165	0.9585
34.8771	57.8467	710.5291	47.364	-278.993	-13.0968	616.1962	2.3388	-0.99228	0.27704	-0.23787	-1.0351	-1.2999	-0.0592	0.0182	-0.0073	-0.0462	0.0165	0.9585
34.8964	61.9166	714.8875	48.3828	-280.5471	-11.7365	614.9339	2.8142	11.3968	-0.16837	4.1153	-0.64276	11.8738	-0.0592	0.0182	-0.0073	-0.0462	0.0165	0.9585
34.9157	64.752	715.1733	49.8579	-280.2501	-11.3623	611.1978	2.9831	31.8314	-0.90931	11.2844	0.21809	33.6871	-0.0592	0.0182	-0.0073	-0.0462	0.0165	0.9585
34.935	66.0222	708.3925	51.5033	-276.9471	-11.8799	602.5379	2.5364	61.8698	-2.0101	21.8116	1.7277	65.855	-0.0592	0.0182	-0.0073	-0.0462	0.0165	0.9585
34.9543	65.4558	692.3917	52.9436	-269.8458	-13.0935	587.1914	1.0241	101.9278	-3.4964	35.8361	4.0647	108.8811	-0.0592	0.0182	-0.0073	-0.0462	0.0165	0.9585
34.9736	62.9161	666.1159	53.7573	-258.6125	-14.7134	564.2591	-2.2288	150.4856	-5.3472	52.8142	7.4235	161.2032	-0.0592	0.0182	-0.0073	-0.0462	0.0165	0.9585
34.9929	58.5015	629.8237	53.5901	-243.443	-16.4116	533.8445	-7.4394	203.787	-7.5854	71.401	11.8757	218.8362	-0.0592	0.0182	-0.0073	-0.0462	0.0165	0.9585
35.0121	52.6415	585.2801	52.2631	-225.1241	-17.8693	497.181	-13.9845	257.2224	-10.4566	89.9249	17.431	276.7722	-0.0592	0.0182	-0.0073	-0.0462	0.0165	0.9585
35.0314	46.0635	535.4984	49.821	-204.9185	-18.8193	456.4425	-21.041	308.1291	-13.9625	107.4061	23.7837	332.0457	-0.0592	0.0182	-0.0073	-0.0462	0.0165	0.9585
35.0507	39.5498	483.6662	46.4642	-184.1368	-19.0841	413.9438	-27.957	355.8097	-17.931	123.582	30.5169	383.8129	-0.0592	0.0182	-0.0073	-0.0462	0.0165	0.9585
35.07	33.6604	432.1472	42.4014	-163.7395	-18.5738	371.4168	-34.2162	400.2154	-22.0822	138.442	37.1611	431.9137	-0.0592	0.0182	-0.0073	-0.0462	0.0165	0.9585
35.0893	28.6421	382.321	37.8221	-144.2667	-17.3099	329.9145	-39.393	441.316	-26.1343	151.9953	43.2825	476.1981	-0.0592	0.0182	-0.0073	-0.0462	0.0165	0.9585
35.1086	24.4744	334.9227	32.9409	-125.9746	-15.4439	290.0601	-43.193	478.9952	-29.8938	164.2301	48.5813	516.435	-0.0592	0.0182	-0.0073	-0.0462	0.0165	0.9585
35.1279	20.9638	290.3257	28.0009	-108.9559	-13.2278	252.2369	-45.5083	513.0441	-33.2681	175.1139	52.9243	552.3184	-0.0592	0.0182	-0.0073	-0.0462	0.0165	0.9585
35.1471	17.858	248.7377	23.2307	-93.2274	-10.9348	216.7137	-46.4296	543.4388	-36.239	184.6855	56.3272	583.7758	-0.0592	0.0182	-0.0073	-0.0462	0.0165	0.9585
35.1664	14.9463	210.3205	18.814	-78.7885	-8.7929	183.7124	-46.1911	570.6543	-38.8081	193.1608	58.883	611.2998	-0.0592	0.0182	-0.0073	-0.0462	0.0165	0.9585
35.1857	12.1179	175.2261	14.8874	-65.6442	-6.9567	153.4297	-45.0738	595.6144	-40.9682	200.9105	60.6925	635.8787	-0.0592	0.0182	-0.0073	-0.0462	0.0165	0.9585
35.205	9.3644	143.5807	11.5433	-53.8041	-5.5092	126.0184	-43.3565	619.2995	-42.7163	208.3159	61.855	658.5718	-0.0592	0.0182	-0.0073	-0.0462	0.0165	0.9585
35.2243	6.7502	115.4579	8.8245	-43.2734	-4.4674	101.5692	-41.2834	642.3274	-44.0478	215.62	62.4537	680.0723	-0.0592	0.0182	-0.0073	-0.0462	0.0165	0.9585
35.2436	4.375	90.8333	6.7051	-34.0367	-3.7795	80.0755	-39.0389	664.7378	-44.9478	222.854	62.5382	700.4924	-0.0592	0.0182	-0.0073	-0.0462	0.0165	0.9585
35.2629	2.3261	69.569	5.0957	-26.0474	-3.344	61.4401	-36.753	686.0429	-45.3877	229.8521	62.1275	719.4213	-0.0592	0.0182	-0.0073	-0.0462	0.0165	0.9585
35.2821	0.65786	51.4622	3.8759	-19.2379	-3.044	45.5164	-34.518	705.4472	-45.3512	236.3226	61.2423	736.1477	-0.0592	0.0182	-0.0073	-0.0462	0.0165	0.9585
35.3014	-0.60002	36.3013	2.9291	-13.5354	-2.778	32.1487	-32.4004	722.054	-44.8894	241.9135	59.9627	749.8608	-0.0592	0.0182	-0.0073	-0.0462	0.0165	0.9585
35.3207	-1.4221	23.9078	2.1623	-8.8779	-2.47	21.2066	-30.4339	735.0086	-44.1393	246.2669	58.4386	759.7868	-0.0592	0.0182	-0.0073	-0.0462	0.0165	0.9585
35.34	-1.796	14.1562	1.519	-5.2202	-2.0788	12.5966	-28.6005	743.6393	-43.2753	249.0853	56.8336	765.3172	-0.0592	0.0182	-0.0073	-0.0462	0.0165	0.9585
35.3593	-1.7668	6.9376	0.98436	-2.5197	-1.6182	6.2284	-26.8146	747.5803	-42.4401	250.1957	55.2535	766.1112	-0.0592	0.0182	-0.0073	-0.0462	0.0165	0.9585
35.3786	-1.491	2.0505	0.573	-0.69777	-1.1646	1.9253	-24.937	746.894	-41.7204	249.6058	53.7335	762.2175	-0.0592	0.0182	-0.0073	-0.0462	0.0165	0.9585
35.3979	-1.1222	-0.89971	0.28713	0.39574	-0.78021	-0.66091	-22.8422	742.2603	-41.1509	247.5742	52.2748	754.2821	-0.0592	0.0182	-0.0073	-0.0462	0.0165	0.9585
35.4171	-0.75779	-2.3942	0.11072	0.94316	-0.48927	-1.9607	-20.5054	735.1784	-40.7184	244.6734	50.8742	743.7615	-0.0592	0.0182	-0.0073	-0.0462	0.0165	0.9585
35.4364	-0.44816	-2.8926	0.02128	1.1175	-0.29217	-2.3837	-18.0451	727.9581	-40.3767	241.774	49.5458	732.9236	-0.0592	0.0182	-0.0073	-0.0462	0.0165	0.9585
35.4557	-0.21097	-2.7801	-0.0054976	1.0627	-0.1744	-2.2711	-15.6894	723.5103	-40.0598	239.9547	48.3198	724.6368	-0.0592	0.0182	-0.0073	-0.0462	0.0165	0.9585
35.475	-0.045388	-2.346	0.0090069	0.88696	-0.11709	-1.8855	-13.672	724.876	-39.7103	240.3173	47.2269	721.8816	-0.0592	0.0182	-0.0073	-0.0462	0.0165	0.9585
35.4943	0.057963	-1.7882	0.047356	0.66568	-0.10151	-1.4015	-12.1415	734.5075	-39.3101	243.7217	46.2932	727.0345	-0.0592	0.0182	-0.0073	-0.0462	0.0165	0.9585
35.5136	0.11172	-1.2316	0.095406	0.44653	-0.1111	-0.92595	-11.1282	753.5003	-38.9027	250.5135	45.5533	741.1234	-0.0592	0.0182	-0.0073	-0.0462	0.0165	0.9585
